<svg id="Layer_1" data-name="Layer 1" xmlns="http://www.w3.org/2000/svg" viewBox="0 0 765.35 481.89"><defs><style>.cls-1{fill:#004c6c;}</style></defs><title>TUD_RGB</title><path class="cls-1" d="M356.53,125.48c0,7.27-1.38,11.3-6.71,11.3s-6.74-4.06-6.74-11.33,1.39-11.29,6.74-11.29S356.53,118.22,356.53,125.48Zm-2.74.53c0-5.39-.21-9.27-4-9.27s-4,3.85-4,8.19c0,5.39.22,9.27,4,9.27S353.79,130.35,353.79,126Z"/><path class="cls-1" d="M370,136.23h-9.79V114.68h2.64v19.18H370Z"/><path class="cls-1" d="M383.34,136.23h-9.79V114.68h2.65v19.18h7.14Z"/><path class="cls-1" d="M391.87,136.78c-3.94,0-6.07-2.62-6.07-7.6h2.84c0,3.57.95,5.17,3.32,5.17,2.12,0,3.14-1.29,3.14-3.36,0-2.43-1.45-3.32-3.57-4.52-2.37-1.32-5.08-2.53-5.08-6.65s2.71-5.66,5.63-5.66c3.45,0,5.61,2,5.61,6.21H395c0-2.46-.86-3.81-2.9-3.81a2.83,2.83,0,0,0-3,3.17c0,2.49,1.84,3.41,3.91,4.46,2.46,1.32,4.86,2.59,4.86,6.53S395.38,136.78,391.87,136.78Z"/><path class="cls-1" d="M407.1,136.78c-5.63,0-6.49-5.14-6.49-11.48s.95-11.14,6.74-11.14c4.34,0,5.79,2.74,5.91,7.29h-2.8c0-2.58-.34-4.83-3.17-4.83-3.85,0-3.94,4.06-3.94,8.28,0,5.45,0,9.39,4,9.39,2.52,0,3.29-1.7,3.29-5.64h2.8C413.41,133.73,411.63,136.78,407.1,136.78Z"/><path class="cls-1" d="M429.48,125.48c0,7.27-1.38,11.3-6.71,11.3S416,132.72,416,125.45s1.38-11.29,6.74-11.29S429.48,118.22,429.48,125.48Zm-2.74.53c0-5.39-.21-9.27-4-9.27s-4,3.85-4,8.19c0,5.39.21,9.27,4,9.27S426.74,130.35,426.74,126Z"/><path class="cls-1" d="M435.94,136.23h-2.61V114.68h2.61Z"/><path class="cls-1" d="M450.81,136.23H441V114.68h2.65v19.18h7.14Z"/><path class="cls-1" d="M472.22,117.05h-5.73v19.18h-2.65V117.05h-5.72v-2.37h14.1Z"/><path class="cls-1" d="M475.14,136.23V114.68h9.6v2.37h-6.95v7.08h6.43v2.4h-6.43v7.33H485v2.37Z"/><path class="cls-1" d="M492,136.23h-2.62V114.68H492Z"/><path class="cls-1" d="M502.44,136.78c-5.63,0-6.49-5.14-6.49-11.48s.95-11.14,6.74-11.14c4.34,0,5.79,2.74,5.91,7.29h-2.8c0-2.58-.34-4.83-3.17-4.83-3.85,0-3.94,4.06-3.94,8.28,0,5.45,0,9.39,4,9.39,2.52,0,3.29-1.7,3.29-5.64h2.8C508.75,133.73,507,136.78,502.44,136.78Z"/><path class="cls-1" d="M525.65,136.23h-2.71L515,119.51v16.72h-2.56V114.68h3.17l7.49,16.25V114.68h2.55Z"/><path class="cls-1" d="M530.57,136.23V114.68h9.61v2.37h-7v7.08h6.43v2.4h-6.43v7.33h7.24v2.37Z"/><path class="cls-1" d="M556.68,125.48c0,7.27-1.39,11.3-6.71,11.3s-6.75-4.06-6.75-11.33,1.39-11.29,6.75-11.29S556.68,118.22,556.68,125.48Zm-2.74.53c0-5.39-.22-9.27-4-9.27s-4,3.85-4,8.19c0,5.39.22,9.27,4,9.27S553.94,130.35,553.94,126Z"/><path class="cls-1" d="M570.16,136.23h-9.79V114.68H563v19.18h7.14Z"/><path class="cls-1" d="M583,130.41h-6.77l-1.63,5.82h-2.74l6.37-21.55h2.83l6.37,21.55h-2.8Zm-.64-2.4-2.74-9.82L576.87,128Z"/><path class="cls-1" d="M593.27,136.23h-2.62V114.68h2.62Zm-.18-23.89H591l3.48-5.42,2.09,1.6Z"/><path class="cls-1" d="M610.72,125.48c0,7.27-1.38,11.3-6.71,11.3s-6.74-4.06-6.74-11.33,1.39-11.29,6.74-11.29S610.72,118.22,610.72,125.48ZM608,126c0-5.39-.21-9.27-4-9.27s-4,3.85-4,8.19c0,5.39.22,9.27,4,9.27S608,130.35,608,126Z"/><path class="cls-1" d="M620.83,136.78c-5.63,0-6.49-5.14-6.49-11.48s.95-11.14,6.74-11.14c4.34,0,5.79,2.74,5.91,7.29h-2.8c0-2.58-.34-4.83-3.17-4.83-3.85,0-3.94,4.06-3.94,8.28,0,5.45,0,9.39,4,9.39,2.52,0,3.29-1.7,3.29-5.64h2.8C627.14,133.73,625.36,136.78,620.83,136.78Z"/><path class="cls-1" d="M644,136.23H641.4v-9.67h-7.92v9.67h-2.64V114.68h2.64v9.51h7.92v-9.51H644Z"/><path class="cls-1" d="M661.06,117.05h-5.72v19.18h-2.65V117.05H647v-2.37h14.09Z"/><path class="cls-1" d="M670.82,130.41h-6.77l-1.63,5.82h-2.74l6.37-21.55h2.83l6.37,21.55h-2.8Zm-.65-2.4-2.74-9.82L664.69,128Z"/><path class="cls-1" d="M355.8,162.87c0,3.08-1.82,6.22-6,6.22h-5.66V147.55h6.4c3.39,0,4.59,2.43,4.59,5,0,1.94-.68,4.1-2.83,5A5.22,5.22,0,0,1,355.8,162.87Zm-9-6.31h2.74c2.18,0,3-1.72,3-3.54,0-1.5-.55-3.1-2.49-3.1h-3.23Zm6.28,6.28c0-2.06-.87-4-3.08-4h-3.2v7.85h3C352.29,166.72,353.06,164.78,353.06,162.84Z"/><path class="cls-1" d="M372.69,169.09h-2.64v-9.66h-7.91v9.66h-2.65V147.55h2.65v9.51h7.91v-9.51h2.64Z"/><path class="cls-1" d="M386.91,163.28h-6.77l-1.63,5.81h-2.74l6.37-21.54H385l6.38,21.54h-2.81Zm-.64-2.41-2.74-9.82-2.74,9.82Z"/><path class="cls-1" d="M397.19,169.09h-2.61V147.55h2.61Z"/><path class="cls-1" d="M412.06,169.09h-9.79V147.55h2.65v19.17h7.14Z"/><path class="cls-1" d="M415.6,169.09V147.55h9.6v2.37h-6.95V157h6.43v2.4h-6.43v7.32h7.23v2.37Z"/><path class="cls-1" d="M444.93,163.28h-6.77l-1.63,5.81h-2.74l6.37-21.54H443l6.37,21.54h-2.8Zm-.64-2.41-2.74-9.82-2.74,9.82Zm-1.57-15.66h-2.1l3.48-5.42,2.09,1.6Z"/><path class="cls-1" d="M462.08,149.92h-5.73v19.17H453.7V149.92H448v-2.37h14.1Z"/><path class="cls-1" d="M478.21,169.09h-2.65v-9.66h-7.91v9.66H465V147.55h2.65v9.51h7.91v-9.51h2.65Z"/><path class="cls-1" d="M492.43,163.28h-6.78L484,169.09h-2.74l6.37-21.54h2.84l6.37,21.54h-2.8Zm-.65-2.41L489,151.05l-2.74,9.82Z"/><path class="cls-1" d="M511.05,169.65c-5.64,0-6.5-5.14-6.5-11.49s1-11.14,6.74-11.14c4.34,0,5.79,2.74,5.91,7.3h-2.8c0-2.59-.34-4.84-3.17-4.84-3.85,0-3.94,4.07-3.94,8.28,0,5.45,0,9.39,4,9.39,2.53,0,3.3-1.69,3.3-5.63h2.8C517.36,166.6,515.57,169.65,511.05,169.65Z"/><path class="cls-1" d="M530.84,169.09h-9.79V147.55h2.65v19.17h7.14Z"/><path class="cls-1" d="M537.15,169.09h-2.62V147.55h2.62Z"/><path class="cls-1" d="M551.52,163.28h-6.77l-1.63,5.81h-2.74l6.37-21.54h2.83L556,169.09h-2.8Zm-.65-2.41-2.73-9.82-2.74,9.82Z"/><path class="cls-1" d="M568.67,149.92h-5.73v19.17h-2.65V149.92h-5.72v-2.37h14.1Z"/><path class="cls-1" d="M584.79,169.09h-2.64v-9.66h-7.91v9.66h-2.65V147.55h2.65v9.51h7.91v-9.51h2.64Z"/><polygon class="cls-1" points="659.48 208.02 659.48 289.7 655.28 283.27 597.66 200 597.53 199.81 590.22 199.81 582.04 199.81 582.04 208 582.04 317.27 598.08 317.27 598.08 227.6 601.77 233.48 659.72 317.08 659.85 317.27 675.51 317.27 675.51 199.81 667.78 199.81 659.48 208.02"/><polygon class="cls-1" points="459.5 302.23 459.5 199.81 451.68 199.81 443.46 208.03 443.46 317.27 511.46 317.27 511.46 302.23 459.5 302.23"/><polygon class="cls-1" points="539.23 208 539.23 317.27 555.27 317.27 555.27 199.81 547.39 199.81 539.23 208"/><polygon class="cls-1" points="242.46 203.21 277.85 203.21 277.86 117.33 314.45 117.33 314.45 80.09 205.86 80.09 205.86 117.33 242.46 117.33 242.46 203.21"/><path class="cls-1" d="M314.49,301.88c0,14.41-5.53,26.83-16,35.92-9.9,8.63-23.53,13.37-38.35,13.37h-.86c-14.49-.18-27.78-4.91-37.51-13.37-10.45-9.09-16-21.51-16-35.92l0-77h35.39l0,71.72A16.68,16.68,0,0,0,246.71,309a20.68,20.68,0,0,0,13.37,5.13h.21a20.6,20.6,0,0,0,13.3-5.13A16.65,16.65,0,0,0,279,296.56l0-71.72h35.39Z"/><path class="cls-1" d="M401.39,255.59c7.95-5.59,12-13.56,12-23.69,0-9.64-3.45-17.73-10-23.4s-15.84-8.69-27-8.69H336.77v25.06l6.77,6.77v85.63h38.08c23.63,0,38.91-13.25,38.91-33.75C420.53,270.52,413.39,260.14,401.39,255.59Zm-41.81,9.22h22c14.11,0,22.54,6.87,22.54,18.38,0,11.92-8.43,19-22.54,19h-22Zm17.54-14.87H359.58V237.36l-6.78-6.78V214.85h23.65c13.17,0,20.71,6.52,20.71,17.88C397.16,243.19,389.3,249.94,377.12,249.94Z"/><path class="cls-1" d="M183,225.2l-.19-.29c-10.25-16.18-28.2-25.1-50.53-25.1H89.84V317.27h32.42c17.77,0,32.79-5.59,43.42-16.16s16.14-25.21,16.14-42.57a65.18,65.18,0,0,0-5.36-26.78Zm-21.51,12.47c.53,1.21,1,2.48,1.44,3.76a54.43,54.43,0,0,1,2.55,17.11c0,13.39-4,24.49-11.63,32.12s-18.46,11.57-31.56,11.57H105.88V214.85h26.37c15.77,0,28,5.59,35.47,16.17l-6.38,6.37Z"/><path class="cls-1" d="M457.53,350.2H451.8v19.18h-2.64V350.2h-5.73v-2.37h14.1Z"/><path class="cls-1" d="M460.45,369.38V347.83h9.61v2.37h-7v7.08h6.43v2.4H463.1V367h7.23v2.37Z"/><path class="cls-1" d="M479.6,369.93c-5.64,0-6.5-5.14-6.5-11.48s1-11.14,6.74-11.14c4.34,0,5.79,2.74,5.91,7.29H483c0-2.58-.34-4.83-3.17-4.83-3.85,0-3.94,4.06-3.94,8.28,0,5.45,0,9.39,4,9.39,2.53,0,3.3-1.69,3.3-5.63h2.8C485.91,366.89,484.12,369.93,479.6,369.93Z"/><path class="cls-1" d="M502.81,369.38h-2.65v-9.67h-7.91v9.67H489.6V347.83h2.65v9.51h7.91v-9.51h2.65Z"/><path class="cls-1" d="M520.93,369.38h-2.7l-8-16.72v16.72h-2.55V347.83h3.17l7.48,16.25V347.83h2.55Z"/><path class="cls-1" d="M538.23,358.64c0,7.26-1.38,11.29-6.71,11.29s-6.74-4.06-6.74-11.32,1.39-11.3,6.74-11.3S538.23,351.37,538.23,358.64Zm-2.74.52c0-5.39-.21-9.27-4-9.27s-4,3.85-4,8.19c0,5.39.22,9.27,4,9.27S535.49,363.5,535.49,359.16Z"/><path class="cls-1" d="M551.71,369.38h-9.79V347.83h2.65V367h7.14Z"/><path class="cls-1" d="M567,358.64c0,7.26-1.38,11.29-6.71,11.29s-6.74-4.06-6.74-11.32,1.38-11.3,6.74-11.3S567,351.37,567,358.64Zm-2.74.52c0-5.39-.21-9.27-4-9.27s-4,3.85-4,8.19c0,5.39.21,9.27,4,9.27S564.27,363.5,564.27,359.16Z"/><path class="cls-1" d="M576.25,358.51h6.38v10.87h-2.44v-1.82a4.39,4.39,0,0,1-4.18,2.37c-5.2,0-6-5.51-6-11.45,0-6.31.95-11.17,6.74-11.17,4.34,0,5.78,2.74,5.91,7.29h-2.8c0-2.58-.34-4.83-3.18-4.83-3.84,0-3.94,4.06-3.94,8.28,0,5.45.16,9.39,3.94,9.39,2.53,0,3.54-1.69,3.54-5.63v-.93h-3.94Z"/><path class="cls-1" d="M589.86,369.38h-2.62V347.83h2.62Z"/><path class="cls-1" d="M600.35,369.93c-5.63,0-6.49-5.14-6.49-11.48s.95-11.14,6.74-11.14c4.34,0,5.79,2.74,5.91,7.29h-2.8c0-2.58-.34-4.83-3.17-4.83-3.85,0-3.94,4.06-3.94,8.28,0,5.45,0,9.39,4,9.39,2.52,0,3.29-1.69,3.29-5.63h2.8C606.66,366.89,604.88,369.93,600.35,369.93Z"/><path class="cls-1" d="M619,363.56h-6.77l-1.64,5.82h-2.74l6.38-21.55h2.83l6.37,21.55h-2.8Zm-.65-2.4-2.74-9.82-2.74,9.82Z"/><path class="cls-1" d="M636.34,369.38h-9.79V347.83h2.64V367h7.15Z"/><path class="cls-1" d="M456.08,379.7v14.9c0,4.31-1.75,7.2-6.28,7.2s-6.37-2.86-6.37-7.2V379.7h2.62v14.71c0,3,.92,4.93,3.87,4.93,2.74,0,3.61-1.73,3.61-4.56V379.7Z"/><path class="cls-1" d="M473.9,401.24h-2.71l-7.94-16.71v16.71H460.7V379.7h3.17L471.35,396V379.7h2.55Z"/><path class="cls-1" d="M481.6,401.24H479V379.7h2.62Z"/><path class="cls-1" d="M498,379.7l-5.29,21.54H490l-5.3-21.54h2.9l3.78,17.67,3.79-17.67Z"/><path class="cls-1" d="M500.89,401.24V379.7h9.61v2.37h-7v7.08H510v2.4h-6.43v7.32h7.24v2.37Z"/><path class="cls-1" d="M527,401.24h-2.84l-3.72-9.17h-2.89v9.17h-2.59V379.7h5.26c4.5,0,6.16,2.74,6.16,5.91a5.6,5.6,0,0,1-3.51,5.63ZM523.7,385.7c0-1.88-.74-3.63-3.48-3.63h-2.7v7.69h2.34C522.75,389.76,523.7,387.73,523.7,385.7Z"/><path class="cls-1" d="M535.34,401.8c-3.94,0-6.07-2.62-6.07-7.6h2.84c0,3.57.95,5.17,3.32,5.17,2.12,0,3.14-1.3,3.14-3.36,0-2.43-1.45-3.32-3.57-4.52-2.37-1.33-5.08-2.53-5.08-6.65s2.71-5.67,5.63-5.67c3.45,0,5.6,2,5.6,6.22h-2.67c0-2.46-.86-3.81-2.9-3.81a2.83,2.83,0,0,0-3,3.17c0,2.49,1.84,3.41,3.91,4.46,2.46,1.32,4.86,2.58,4.86,6.52S538.85,401.8,535.34,401.8Z"/><path class="cls-1" d="M547.93,401.24h-2.62V379.7h2.62Z"/><path class="cls-1" d="M565.1,382.07h-5.72v19.17h-2.65V382.07H551V379.7h14.1Z"/><path class="cls-1" d="M575.3,401.24h-2.7v-8.4L567,379.7h3l4.06,10.83,4-10.83h2.78l-5.58,13.14Z"/><path class="cls-1" d="M604.73,390.16c0,5.54-1.42,11.08-8.65,11.08h-4V379.7h4.12C603.34,379.7,604.73,384.62,604.73,390.16Zm-2.77.16c0-4.34-.49-8.25-5.85-8.25h-1.36v16.8h1.3C601.4,398.87,602,394.66,602,390.32Z"/><path class="cls-1" d="M620.92,379.7v14.9c0,4.31-1.76,7.2-6.28,7.2s-6.37-2.86-6.37-7.2V379.7h2.61v14.71c0,3,.93,4.93,3.88,4.93,2.74,0,3.6-1.73,3.6-4.56V379.7Z"/><path class="cls-1" d="M637.17,395c0,3.08-1.82,6.21-6,6.21h-5.67V379.7h6.41c3.38,0,4.58,2.43,4.58,5,0,1.94-.67,4.1-2.83,5A5.22,5.22,0,0,1,637.17,395Zm-9-6.31h2.74c2.19,0,3-1.73,3-3.54,0-1.51-.56-3.11-2.5-3.11h-3.23Zm6.28,6.28c0-2.07-.86-4-3.08-4h-3.2v7.84h3C633.66,398.87,634.43,396.94,634.43,395Z"/><path class="cls-1" d="M650.65,401.24h-9.79V379.7h2.65v19.17h7.14Z"/><path class="cls-1" d="M657,401.24h-2.62V379.7H657Z"/><path class="cls-1" d="M675.24,401.24h-2.71l-7.94-16.71v16.71H662V379.7h3.17L672.69,396V379.7h2.55Z"/></svg>